<?xml version="1.0" encoding="utf-8"?>
<!-- Generator: Adobe Illustrator 21.0.0, SVG Export Plug-In . SVG Version: 6.00 Build 0)  -->
<svg version="1.1" id="Layer_1" xmlns="http://www.w3.org/2000/svg" xmlns:xlink="http://www.w3.org/1999/xlink" x="0px" y="0px"
	 viewBox="0 0 69.8 69.6" style="enable-background:new 0 0 69.8 69.6;" xml:space="preserve">
<style type="text/css">
	.st0{fill:none;}
	.st1{fill:#FFFFFF;}
</style>
<rect class="st0" width="69.8" height="69.6"/>
<g>
	<rect x="27.9" y="44.4" class="st1" width="3" height="15"/>
	<g>
		<path class="st1" d="M41.5,46.2c1.5,0,2.5,0.4,3,0.7l0.2,0.1l0.7-2.4l-0.1-0.1c-0.7-0.4-2.1-0.8-3.8-0.8c-2.4,0-4.4,0.8-5.9,2.3
			c-1.4,1.4-2.2,3.5-2.2,5.7c0,2.3,0.7,4.2,2,5.6c1.3,1.4,3.2,2.1,5.4,2.1c1.9,0,3.5-0.5,4.3-0.9l0.1-0.1L44.7,56l-0.2,0.1
			c-0.8,0.3-1.7,0.7-3.2,0.7c-2.9,0-4.9-2.1-4.9-5.3c0-1.5,0.5-2.8,1.3-3.8C38.6,46.8,39.9,46.2,41.5,46.2"/>
		<path class="st1" d="M53.2,46c1,0,1.8,0.3,2.4,0.9c0.9,1,1.1,2.4,1.1,3h-7.4C49.6,48.4,50.7,46,53.2,46 M58.4,46.2
			c-1.1-1.7-2.8-2.5-5-2.5c-2.1,0-3.9,0.8-5.2,2.4c-1.2,1.5-1.9,3.5-1.9,5.7s0.7,4.2,2,5.5c1.3,1.4,3.2,2.1,5.4,2.1c2.4,0,4-0.5,5-1
			l0.1-0.1L58.3,56l-0.2,0.1c-0.9,0.4-2,0.7-4,0.7c-1.4,0-2.5-0.4-3.4-1.1c-0.9-0.8-1.4-2-1.5-3.6h10.3v-0.3c0-0.3,0.1-0.7,0.1-1.1
			C59.7,50,59.6,48,58.4,46.2"/>
	</g>
	<polygon class="st1" points="9.9,9.5 9.9,59.5 19.8,59.5 19.8,53.8 15.6,53.8 15.6,15.2 54.3,15.2 54.3,36.6 59.9,36.6 59.9,9.5 	
		"/>
</g>
</svg>
